<svg width="64" height="64" viewBox="0 0 64 64" fill="none" xmlns="http://www.w3.org/2000/svg">
<g clip-path="url(#clip0_77_102)">
<path d="M12.0125 0.137262C10.4125 0.449762 8.79999 1.69976 8.12499 3.14976C7.66249 4.13726 7.49999 4.97476 7.49999 6.38726V7.49976H6.38749C5.78749 7.49976 4.98749 7.56226 4.61249 7.62476C2.36249 8.04976 0.549994 9.86226 0.124994 12.1123C-0.0500061 13.0373 -0.0500061 54.7123 0.124994 55.6373C0.549994 57.8873 2.36249 59.6998 4.61249 60.1248C5.04999 60.1998 10.8 60.2498 20.9 60.2498H36.5125L37.475 60.9248C38.8 61.8373 39.85 62.3998 41.25 62.9123C44.4875 64.1123 48.0625 64.2998 51.375 63.4248C57.075 61.9248 61.6625 57.4623 63.325 51.7623C64 49.4748 64 49.4873 64 30.4248C64 18.9373 63.95 12.5498 63.875 12.1123C63.45 9.86226 61.6375 8.04976 59.3875 7.62476C59.0125 7.56226 58.2125 7.49976 57.6125 7.49976H56.5V6.38726C56.5 4.26226 56 2.86226 54.825 1.67476C52.65 -0.500238 49.1 -0.500238 46.925 1.67476C45.75 2.86226 45.25 4.26226 45.25 6.38726V7.49976H41.5H37.75V6.38726C37.75 4.26226 37.25 2.86226 36.075 1.67476C33.9 -0.500238 30.35 -0.500238 28.175 1.67476C27 2.86226 26.5 4.26226 26.5 6.38726V7.49976H22.625H18.75V6.38726C18.75 5.78726 18.6875 4.98726 18.625 4.61226C18.0375 1.56226 15.0625 -0.462738 12.0125 0.137262ZM14 3.99976C14.325 4.16226 14.5875 4.42476 14.75 4.74976C14.9875 5.21226 15 5.47476 15 9.37476C15 13.2748 14.9875 13.5373 14.75 13.9998C14.4625 14.5623 13.75 14.9998 13.125 14.9998C12.5 14.9998 11.7875 14.5623 11.5 13.9998C11.2625 13.5373 11.25 13.2748 11.25 9.37476C11.25 5.47476 11.2625 5.21226 11.5 4.74976C11.9625 3.83726 13.05 3.51226 14 3.99976ZM33 3.99976C33.325 4.16226 33.5875 4.42476 33.75 4.74976C33.9875 5.21226 34 5.47476 34 9.37476C34 13.2748 33.9875 13.5373 33.75 13.9998C33.4625 14.5623 32.75 14.9998 32.125 14.9998C31.5 14.9998 30.7875 14.5623 30.5 13.9998C30.2625 13.5373 30.25 13.2748 30.25 9.37476C30.25 5.47476 30.2625 5.21226 30.5 4.74976C30.9625 3.83726 32.05 3.51226 33 3.99976ZM51.75 3.99976C52.075 4.16226 52.3375 4.42476 52.5 4.74976C52.7375 5.21226 52.75 5.47476 52.75 9.37476C52.75 13.2748 52.7375 13.5373 52.5 13.9998C52.2125 14.5623 51.5 14.9998 50.875 14.9998C50.25 14.9998 49.5375 14.5623 49.25 13.9998C49.0125 13.5373 49 13.2748 49 9.37476C49 5.47476 49.0125 5.21226 49.25 4.74976C49.7125 3.83726 50.8 3.51226 51.75 3.99976ZM7.49999 12.3623C7.49999 14.4873 7.99999 15.8873 9.17499 17.0748C11.35 19.2498 14.9 19.2498 17.075 17.0748C18.25 15.8873 18.75 14.4873 18.75 12.3623V11.2498H22.625H26.5V12.3623C26.5 14.4873 27 15.8873 28.175 17.0748C30.35 19.2498 33.9 19.2498 36.075 17.0748C37.25 15.8873 37.75 14.4873 37.75 12.3623V11.2498H41.5H45.25V12.3623C45.25 14.4873 45.75 15.8873 46.925 17.0748C49.1 19.2498 52.65 19.2498 54.825 17.0748C56 15.8873 56.5 14.4873 56.5 12.3623V11.2498H57.625C59.025 11.2498 59.6125 11.4998 60 12.2498C60.2375 12.7123 60.25 12.9748 60.25 17.7498V22.7498H32H3.74999V17.7498C3.74999 12.9748 3.76249 12.7123 3.99999 12.2498C4.38749 11.4998 4.93749 11.2623 6.34999 11.2498H7.49999V12.3623ZM60.25 31.4748V36.4498L58.9625 35.1998C58.2625 34.4998 57.25 33.6498 56.7375 33.2873C50.8 29.2123 43.1375 29.2748 37.275 33.4623L36.4875 34.0123L32.25 33.9998C28.2 33.9873 27.9875 33.9998 27.5 34.2498C26.9375 34.5373 26.5 35.2498 26.5 35.8873C26.5 36.4998 26.975 37.2123 27.5625 37.4998C28.025 37.7248 28.3375 37.7498 30.5375 37.7498C31.8875 37.7498 33 37.7873 33 37.8373C33 37.8873 32.775 38.2873 32.5125 38.7498C31.6125 40.2623 30.675 42.9123 30.425 44.6498L30.35 45.2498H29.1625C27.725 45.2498 27.1375 45.4873 26.75 46.2498C26.4375 46.8748 26.4375 47.3748 26.75 47.9998C27.1375 48.7623 27.725 48.9998 29.175 48.9998H30.35L30.4375 49.6498C30.675 51.4123 31.6625 54.1123 32.6375 55.7123L33.125 56.4998H19.175C5.44999 56.4998 5.23749 56.4998 4.74999 56.2498C4.42499 56.0873 4.16249 55.8248 3.99999 55.4998C3.74999 55.0123 3.74999 54.7998 3.74999 40.7498V26.4998H32H60.25V31.4748ZM48.9125 34.1373C54.1 34.9123 58.2875 38.5623 59.725 43.5623C61.725 50.4623 57.6625 57.7123 50.6875 59.7248C43.7875 61.7248 36.5375 57.6623 34.525 50.6873C32.15 42.4748 38.3875 34.1248 46.975 34.0123C47.55 33.9998 48.425 34.0623 48.9125 34.1373Z" fill="#00A676"/>
<path d="M8.475 34.2625C7.9375 34.5375 7.5 35.275 7.5 35.875C7.5 36.5 7.9375 37.2125 8.5 37.5C8.9625 37.7375 9.225 37.75 13.125 37.75C17.025 37.75 17.2875 37.7375 17.75 37.5C18.3125 37.2125 18.75 36.5 18.75 35.875C18.75 35.25 18.3125 34.5375 17.75 34.25C17.2875 34.0125 17.025 34 13.1 34C9.2 34.0125 8.9125 34.025 8.475 34.2625Z" fill="#00A676"/>
<path d="M8.475 45.5125C7.9375 45.7875 7.5 46.525 7.5 47.125C7.5 47.75 7.9375 48.4625 8.5 48.75C8.9625 48.9875 9.225 49 13.125 49C17.025 49 17.2875 48.9875 17.75 48.75C18.3125 48.4625 18.75 47.75 18.75 47.125C18.75 46.5 18.3125 45.7875 17.75 45.5C17.2875 45.2625 17.025 45.25 13.1 45.25C9.2 45.2625 8.9125 45.275 8.475 45.5125Z" fill="#00A676"/>
<path d="M46.225 38.0125C45.9375 38.1625 45.65 38.45 45.5 38.75C45.2625 39.2125 45.25 39.475 45.25 43.375C45.25 47.275 45.2625 47.5375 45.5 48C45.6625 48.325 45.925 48.5875 46.25 48.75C46.7125 48.9875 46.975 49 50.875 49C54.775 49 55.0375 48.9875 55.5 48.75C56.0625 48.4625 56.5 47.75 56.5 47.125C56.5 46.5 56.0625 45.7875 55.5 45.5C55.05 45.275 54.775 45.25 52 45.25H49V42.25C49 39.475 48.975 39.2 48.75 38.75C48.2875 37.8375 47.1625 37.5125 46.225 38.0125Z" fill="#00A676"/>
</g>
<defs>
<clipPath id="clip0_77_102">
<rect width="64" height="64" fill="white"/>
</clipPath>
</defs>
</svg>
