<svg width="1813" height="583" viewBox="0 0 1813 583" fill="none" xmlns="http://www.w3.org/2000/svg">
<path d="M829.688 409.464C829.688 429.603 824.653 447.523 814.584 463.224C804.515 478.755 789.923 490.957 770.808 499.832C751.693 508.536 728.397 512.888 700.92 512.888C675.149 512.888 651.768 508.963 630.776 501.112C609.955 493.261 592.12 482.168 577.272 467.832L603.64 438.136C615.928 449.571 630.008 458.701 645.88 465.528C661.752 472.184 680.355 475.512 701.688 475.512C716.024 475.512 729.421 473.208 741.88 468.6C754.339 463.821 764.408 456.653 772.088 447.096C779.768 437.368 783.608 425.08 783.608 410.232C783.608 398.797 781.389 389.069 776.952 381.048C772.515 373.027 764.664 365.944 753.4 359.8C742.136 353.485 726.435 347.341 706.296 341.368C683.085 334.541 662.947 326.861 645.88 318.328C628.984 309.624 615.843 298.957 606.456 286.328C597.24 273.699 592.632 258.083 592.632 239.48C592.632 221.901 597.496 206.285 607.224 192.632C616.952 178.979 630.349 168.312 647.416 160.632C664.653 152.781 684.451 148.856 706.808 148.856C731.213 148.856 752.376 152.355 770.296 159.352C788.387 166.179 804.771 176.077 819.448 189.048L793.336 217.976C780.707 206.712 767.139 198.605 752.632 193.656C738.125 188.536 723.363 185.976 708.344 185.976C695.544 185.976 683.768 187.939 673.016 191.864C662.435 195.619 653.901 201.336 647.416 209.016C641.101 216.525 637.944 226.168 637.944 237.944C637.944 248.013 640.675 256.717 646.136 264.056C651.597 271.395 660.813 278.136 673.784 284.28C686.755 290.253 704.419 296.568 726.776 303.224C745.037 308.515 761.933 315.171 777.464 323.192C793.165 331.043 805.795 341.795 815.352 355.448C824.909 368.931 829.688 386.936 829.688 409.464ZM1139.25 237.432L1017.9 358.776L1153.33 507H1096.75L964.144 359.8L1083.44 237.432H1139.25ZM959.28 123.512V507H916.272V128.888L959.28 123.512ZM1254.25 387.448C1255.1 408.269 1259.11 425.336 1266.28 438.648C1273.45 451.789 1282.92 461.517 1294.7 467.832C1306.47 473.976 1319.27 477.048 1333.1 477.048C1346.92 477.048 1359.38 475 1370.47 470.904C1381.74 466.808 1393.26 460.749 1405.03 452.728L1425.26 481.144C1412.63 491.043 1398.21 498.808 1381.99 504.44C1365.95 510.072 1349.48 512.888 1332.58 512.888C1306.47 512.888 1284.2 507 1265.77 495.224C1247.34 483.448 1233.26 467.064 1223.53 446.072C1213.97 424.909 1209.19 400.419 1209.19 372.6C1209.19 345.293 1214.06 321.059 1223.78 299.896C1233.51 278.733 1247.17 262.093 1264.74 249.976C1282.32 237.859 1303.06 231.8 1326.95 231.8C1349.65 231.8 1369.19 237.176 1385.58 247.928C1401.96 258.509 1414.5 273.699 1423.21 293.496C1432.08 313.123 1436.52 336.589 1436.52 363.896C1436.52 368.504 1436.43 372.856 1436.26 376.952C1436.09 380.877 1435.84 384.376 1435.5 387.448H1254.25ZM1327.46 267.128C1307.5 267.128 1290.77 274.211 1277.29 288.376C1263.98 302.541 1256.38 324.472 1254.5 354.168H1395.05C1394.54 325.325 1388.22 303.651 1376.1 289.144C1363.99 274.467 1347.77 267.128 1327.46 267.128ZM1688.74 123.512L1731.74 128.888V507H1694.11L1690.02 471.416C1679.95 485.752 1668.34 496.248 1655.2 502.904C1642.23 509.56 1628.32 512.888 1613.47 512.888C1590.09 512.888 1570.81 507 1555.62 495.224C1540.43 483.448 1529.16 467.064 1521.82 446.072C1514.49 424.909 1510.82 400.419 1510.82 372.6C1510.82 345.635 1515 321.571 1523.36 300.408C1531.72 279.075 1543.75 262.349 1559.46 250.232C1575.33 237.944 1594.36 231.8 1616.54 231.8C1632.07 231.8 1645.73 234.531 1657.5 239.992C1669.28 245.283 1679.69 253.133 1688.74 263.544V123.512ZM1627.81 266.36C1605.28 266.36 1587.96 275.149 1575.84 292.728C1563.72 310.307 1557.66 336.931 1557.66 372.6C1557.66 395.811 1560.14 415.267 1565.09 430.968C1570.04 446.669 1577.29 458.445 1586.85 466.296C1596.58 474.147 1608.44 478.072 1622.43 478.072C1637.79 478.072 1650.85 473.72 1661.6 465.016C1672.52 456.312 1681.57 446.499 1688.74 435.576V300.92C1681.4 289.997 1672.52 281.549 1662.11 275.576C1651.7 269.432 1640.27 266.36 1627.81 266.36Z" fill="#00A676"/>
<g clip-path="url(#clip0_77_100)">
<path d="M95.9123 73.0974C83.1373 75.5926 70.2625 85.573 64.8731 97.1504C61.1803 105.035 59.8828 111.722 59.8828 123V131.882H51.0002C46.2096 131.882 39.8221 132.381 36.8279 132.88C18.8631 136.274 4.39141 150.745 0.998053 168.71C-0.399213 176.096 -0.399213 508.845 0.998053 516.23C4.39141 534.195 18.8631 548.667 36.8279 552.06C40.3211 552.659 86.2313 553.058 166.873 553.058H291.529L299.214 558.448C309.794 565.733 318.177 570.225 329.355 574.317C355.205 583.898 383.749 585.395 410.197 578.409C455.708 566.432 492.337 530.802 505.611 485.291C511 467.027 511 467.126 511 314.924C511 223.204 510.601 172.204 510.002 168.71C506.609 150.745 492.137 136.274 474.172 132.88C471.178 132.381 464.79 131.882 460 131.882H451.117V123C451.117 106.033 447.125 94.8549 437.743 85.3734C420.377 68.0074 392.033 68.0074 374.667 85.3734C365.285 94.8549 361.293 106.033 361.293 123V131.882H331.352H301.41V123C301.41 106.033 297.418 94.8549 288.036 85.3734C270.67 68.0074 242.326 68.0074 224.96 85.3734C215.578 94.8549 211.586 106.033 211.586 123V131.882H180.646H149.707V123C149.707 118.209 149.208 111.822 148.709 108.828C144.018 84.4752 120.265 68.3068 95.9123 73.0974ZM111.781 103.937C114.376 105.235 116.472 107.33 117.77 109.925C119.666 113.618 119.766 115.714 119.766 146.853C119.766 177.992 119.666 180.088 117.77 183.781C115.474 188.272 109.785 191.765 104.795 191.765C99.8047 191.765 94.1158 188.272 91.8203 183.781C89.924 180.088 89.8242 177.992 89.8242 146.853C89.8242 115.714 89.924 113.618 91.8203 109.925C95.5131 102.64 104.196 100.045 111.781 103.937ZM263.484 103.937C266.079 105.235 268.175 107.33 269.473 109.925C271.369 113.618 271.469 115.714 271.469 146.853C271.469 177.992 271.369 180.088 269.473 183.781C267.177 188.272 261.488 191.765 256.498 191.765C251.508 191.765 245.819 188.272 243.523 183.781C241.627 180.088 241.527 177.992 241.527 146.853C241.527 115.714 241.627 113.618 243.523 109.925C247.216 102.64 255.899 100.045 263.484 103.937ZM413.191 103.937C415.786 105.235 417.882 107.33 419.18 109.925C421.076 113.618 421.176 115.714 421.176 146.853C421.176 177.992 421.076 180.088 419.18 183.781C416.884 188.272 411.195 191.765 406.205 191.765C401.215 191.765 395.526 188.272 393.23 183.781C391.334 180.088 391.234 177.992 391.234 146.853C391.234 115.714 391.334 113.618 393.23 109.925C396.923 102.64 405.606 100.045 413.191 103.937ZM59.8828 170.706C59.8828 187.673 63.875 198.851 73.2566 208.333C90.6227 225.699 118.967 225.699 136.333 208.333C145.715 198.851 149.707 187.673 149.707 170.706V161.824H180.646H211.586V170.706C211.586 187.673 215.578 198.851 224.96 208.333C242.326 225.699 270.67 225.699 288.036 208.333C297.418 198.851 301.41 187.673 301.41 170.706V161.824H331.352H361.293V170.706C361.293 187.673 365.285 198.851 374.667 208.333C392.033 225.699 420.377 225.699 437.743 208.333C447.125 198.851 451.117 187.673 451.117 170.706V161.824H460.1C471.278 161.824 475.969 163.82 479.062 169.808C480.959 173.501 481.059 175.597 481.059 213.722V253.644H255.5H29.9414V213.722C29.9414 175.597 30.0412 173.501 31.9375 169.808C35.0315 163.82 39.4229 161.924 50.7008 161.824H59.8828V170.706ZM481.059 323.308V363.03L470.779 353.05C465.19 347.461 457.105 340.674 453.013 337.779C405.606 305.243 344.426 305.742 297.618 339.177L291.33 343.568L257.496 343.468C225.159 343.369 223.463 343.468 219.57 345.464C215.079 347.76 211.586 353.449 211.586 358.539C211.586 363.429 215.379 369.118 220.069 371.414C223.762 373.21 226.257 373.41 243.823 373.41C254.602 373.41 263.484 373.709 263.484 374.108C263.484 374.508 261.688 377.701 259.592 381.394C252.406 393.47 244.921 414.629 242.925 428.502L242.326 433.293H232.844C221.367 433.293 216.676 435.189 213.582 441.277C211.087 446.267 211.087 450.259 213.582 455.25C216.676 461.338 221.367 463.234 232.944 463.234H242.326L243.024 468.424C244.921 482.496 252.805 504.054 260.59 516.829L264.482 523.117H153.1C43.5148 523.117 41.8182 523.117 37.9258 521.121C35.3309 519.823 33.235 517.727 31.9375 515.132C29.9414 511.24 29.9414 509.543 29.9414 397.363V283.586H255.5H481.059V323.308ZM390.536 344.566C431.955 350.754 465.389 379.897 476.867 419.819C492.836 474.911 460.399 532.798 404.708 548.866C349.616 564.835 291.729 532.399 275.661 476.708C256.698 411.136 306.5 344.466 375.066 343.568C379.657 343.468 386.643 343.967 390.536 344.566Z" fill="#00A676"/>
<path d="M67.6676 345.565C63.376 347.76 59.8828 353.649 59.8828 358.439C59.8828 363.43 63.376 369.119 67.8672 371.414C71.56 373.31 73.6559 373.41 104.795 373.41C135.934 373.41 138.03 373.31 141.723 371.414C146.214 369.119 149.707 363.43 149.707 358.439C149.707 353.449 146.214 347.76 141.723 345.465C138.03 343.569 135.934 343.469 104.595 343.469C73.4562 343.569 71.1607 343.668 67.6676 345.565Z" fill="#00A676"/>
<path d="M67.6676 435.389C63.376 437.585 59.8828 443.473 59.8828 448.264C59.8828 453.254 63.376 458.943 67.8672 461.238C71.56 463.135 73.6559 463.234 104.795 463.234C135.934 463.234 138.03 463.135 141.723 461.238C146.214 458.943 149.707 453.254 149.707 448.264C149.707 443.273 146.214 437.585 141.723 435.289C138.03 433.393 135.934 433.293 104.595 433.293C73.4562 433.393 71.1607 433.493 67.6676 435.389Z" fill="#00A676"/>
<path d="M369.078 375.506C366.782 376.704 364.487 378.999 363.289 381.395C361.393 385.087 361.293 387.183 361.293 418.322C361.293 449.461 361.393 451.557 363.289 455.25C364.587 457.845 366.682 459.941 369.277 461.238C372.97 463.135 375.066 463.234 406.205 463.234C437.344 463.234 439.44 463.135 443.133 461.238C447.624 458.943 451.117 453.254 451.117 448.264C451.117 443.273 447.624 437.585 443.133 435.289C439.54 433.493 437.344 433.293 415.187 433.293H391.234V409.34C391.234 387.183 391.035 384.988 389.238 381.395C385.546 374.109 376.563 371.514 369.078 375.506Z" fill="#00A676"/>
</g>
<defs>
<clipPath id="clip0_77_100">
<rect width="511" height="511" fill="white" transform="translate(0 72)"/>
</clipPath>
</defs>
</svg>
