<svg width="844" height="128" viewBox="0 0 844 128" fill="none" xmlns="http://www.w3.org/2000/svg">
<path d="M182.02 96.9126C182.02 101.68 180.829 105.921 178.445 109.638C176.062 113.314 172.608 116.203 168.083 118.303C163.559 120.364 158.044 121.394 151.54 121.394C145.44 121.394 139.906 120.465 134.937 118.606C130.008 116.748 125.787 114.122 122.272 110.729L128.513 103.699C131.422 106.406 134.755 108.567 138.512 110.183C142.269 111.759 146.672 112.547 151.722 112.547C155.115 112.547 158.287 112.001 161.236 110.91C164.185 109.779 166.568 108.083 168.386 105.82C170.204 103.518 171.113 100.609 171.113 97.0944C171.113 94.3877 170.588 92.085 169.538 90.1863C168.487 88.2876 166.629 86.6111 163.963 85.1568C161.296 83.662 157.58 82.2077 152.813 80.7938C147.319 79.1779 142.552 77.36 138.512 75.3401C134.513 73.2798 131.402 70.7549 129.18 67.7655C126.998 64.776 125.908 61.0796 125.908 56.6762C125.908 52.5152 127.059 48.8188 129.362 45.587C131.664 42.3552 134.836 39.8303 138.875 38.0124C142.956 36.1541 147.642 35.2249 152.934 35.2249C158.711 35.2249 163.72 36.0531 167.962 37.7094C172.244 39.3253 176.122 41.6684 179.597 44.7386L173.416 51.5861C170.426 48.9198 167.215 47.0009 163.781 45.8294C160.347 44.6174 156.853 44.0115 153.298 44.0115C150.268 44.0115 147.48 44.476 144.935 45.4052C142.431 46.2939 140.411 47.6473 138.875 49.4652C137.381 51.2427 136.633 53.5252 136.633 56.3126C136.633 58.6961 137.28 60.7564 138.573 62.4935C139.865 64.2306 142.047 65.8264 145.117 67.2807C148.187 68.6946 152.368 70.1893 157.661 71.7649C161.983 73.0172 165.983 74.5927 169.659 76.4914C173.375 78.3497 176.365 80.8948 178.627 84.1266C180.889 87.3181 182.02 91.58 182.02 96.9126ZM255.295 56.1914L226.572 84.9144L258.628 120H245.236L213.847 85.1568L242.085 56.1914H255.295ZM212.696 29.2258V120H202.515V30.4984L212.696 29.2258ZM282.517 91.7012C282.719 96.6298 283.668 100.67 285.365 103.821C287.061 106.931 289.304 109.234 292.091 110.729C294.878 112.183 297.908 112.91 301.181 112.91C304.453 112.91 307.402 112.425 310.028 111.456C312.694 110.486 315.421 109.052 318.208 107.153L322.995 113.88C320.006 116.223 316.592 118.061 312.755 119.394C308.957 120.727 305.059 121.394 301.059 121.394C294.878 121.394 289.607 120 285.244 117.213C280.881 114.425 277.548 110.547 275.245 105.578C272.983 100.569 271.852 94.7715 271.852 88.1866C271.852 81.7229 273.003 75.9864 275.306 70.9771C277.608 65.9678 280.84 62.029 285.001 59.1607C289.162 56.2924 294.07 54.8583 299.726 54.8583C305.099 54.8583 309.725 56.1309 313.603 58.6759C317.481 61.1806 320.45 64.776 322.511 69.4622C324.611 74.1079 325.662 79.6627 325.662 86.1263C325.662 87.2171 325.641 88.2472 325.601 89.2168C325.561 90.1459 325.5 90.9741 325.419 91.7012H282.517ZM299.847 63.2207C295.121 63.2207 291.162 64.8972 287.97 68.2502C284.819 71.6033 283.022 76.7944 282.577 83.8236H315.845C315.724 76.9964 314.229 71.8659 311.361 68.432C308.493 64.9578 304.655 63.2207 299.847 63.2207ZM385.363 29.2258L395.543 30.4984V120H386.635L385.666 111.577C383.282 114.97 380.535 117.455 377.425 119.03C374.354 120.606 371.062 121.394 367.547 121.394C362.013 121.394 357.448 120 353.853 117.213C350.257 114.425 347.591 110.547 345.854 105.578C344.117 100.569 343.248 94.7715 343.248 88.1866C343.248 81.8037 344.238 76.1076 346.217 71.0983C348.197 66.0485 351.045 62.0895 354.761 59.2213C358.518 56.3126 363.023 54.8583 368.275 54.8583C371.951 54.8583 375.183 55.5047 377.97 56.7974C380.758 58.0498 383.222 59.9081 385.363 62.3723V29.2258ZM370.941 63.0389C365.608 63.0389 361.508 65.1194 358.64 69.2804C355.771 73.4414 354.337 79.7434 354.337 88.1866C354.337 93.6807 354.923 98.2861 356.095 102.003C357.266 105.719 358.983 108.507 361.245 110.365C363.548 112.223 366.356 113.153 369.668 113.153C373.304 113.153 376.395 112.122 378.94 110.062C381.525 108.002 383.666 105.679 385.363 103.093V71.2195C383.626 68.634 381.525 66.6343 379.061 65.2204C376.597 63.7661 373.89 63.0389 370.941 63.0389ZM507.553 45.1628V74.3705H540.275V82.8541H507.553V120H497.13V36.558H546.274L545.002 45.1628H507.553ZM565.8 120V112.183H575.738V64.0085H565.8V56.1914H583.494L585.372 71.2801C587.837 66.0283 590.826 61.9684 594.341 59.1001C597.855 56.2318 602.501 54.7977 608.278 54.7977C610.056 54.7977 611.631 54.9391 613.005 55.2219C614.419 55.4643 615.853 55.7875 617.307 56.1914L614.338 65.281C613.005 64.9174 611.793 64.6548 610.702 64.4932C609.611 64.2912 608.359 64.1902 606.945 64.1902C602.057 64.1902 597.855 65.9274 594.341 69.4016C590.826 72.8758 588.019 78.1275 585.918 85.1568V112.183H598.886V120H565.8ZM607.49 77.764V63.8873L608.521 56.1914H617.307L615.853 77.764H607.49ZM662.162 54.8583C668.181 54.8583 673.211 56.2318 677.251 58.9789C681.331 61.6856 684.381 65.5234 686.401 70.4923C688.461 75.4613 689.491 81.319 689.491 88.0654C689.491 94.5695 688.441 100.326 686.34 105.336C684.239 110.345 681.149 114.284 677.069 117.152C673.029 119.98 668.02 121.394 662.041 121.394C656.062 121.394 651.032 120.02 646.952 117.273C642.872 114.526 639.782 110.668 637.681 105.699C635.621 100.69 634.59 94.8523 634.59 88.1866C634.59 81.6018 635.641 75.8047 637.741 70.7953C639.842 65.786 642.933 61.8876 647.013 59.1001C651.133 56.2722 656.183 54.8583 662.162 54.8583ZM662.162 63.1601C656.668 63.1601 652.507 65.2002 649.679 69.2804C646.892 73.3202 645.498 79.6223 645.498 88.1866C645.498 96.5894 646.871 102.831 649.618 106.911C652.406 110.991 656.547 113.031 662.041 113.031C667.535 113.031 671.656 110.991 674.403 106.911C677.19 102.831 678.584 96.549 678.584 88.0654C678.584 79.5819 677.21 73.3202 674.463 69.2804C671.716 65.2002 667.616 63.1601 662.162 63.1601ZM710.532 120V56.1914H719.197L719.985 65.0386C722.57 61.7664 725.802 59.2617 729.68 57.5246C733.599 55.7471 737.396 54.8583 741.072 54.8583C747.334 54.8583 751.879 56.5146 754.707 59.8273C757.575 63.1399 759.009 67.7453 759.009 73.6434V120H748.829V81.1574C748.829 76.7944 748.586 73.2798 748.102 70.6135C747.617 67.9069 746.607 65.9476 745.072 64.7356C743.537 63.4833 741.153 62.8571 737.921 62.8571C735.417 62.8571 733.053 63.4025 730.832 64.4932C728.65 65.584 726.691 66.9575 724.954 68.6138C723.257 70.2297 721.843 71.8659 720.712 73.5222V120H710.532ZM833.86 116.788C831.678 118.243 829.032 119.374 825.921 120.182C822.811 120.99 819.761 121.394 816.771 121.394C809.904 121.394 804.611 119.596 800.895 116.001C797.178 112.405 795.32 107.78 795.32 102.124V64.069H780.655V56.1914H795.32V41.7088L805.5 40.4968V56.1914H827.557L826.346 64.069H805.5V102.003C805.5 105.558 806.429 108.264 808.288 110.123C810.186 111.981 813.317 112.91 817.68 112.91C820.064 112.91 822.265 112.627 824.285 112.062C826.305 111.496 828.184 110.769 829.921 109.88L833.86 116.788Z" fill="#00A676"/>
<g clip-path="url(#clip0_2007_42)">
<path d="M20.2428 16.0492C17.5466 16.597 14.8294 18.7882 13.6919 21.3301C12.9125 23.0612 12.6387 24.5293 12.6387 27.0054V28.9556H10.764C9.75294 28.9556 8.40484 29.0652 7.77291 29.1748C3.98138 29.9198 0.927097 33.0971 0.210919 37.0414C-0.0839781 38.6629 -0.0839781 111.719 0.210919 113.341C0.927097 117.285 3.98138 120.462 7.77291 121.207C8.51016 121.339 18.1996 121.426 35.2194 121.426H61.5284L63.1503 122.61C65.3831 124.209 67.1525 125.195 69.5117 126.094C74.9673 128.197 80.9916 128.526 86.5735 126.992C96.1788 124.363 103.909 116.54 106.711 106.548C107.848 102.538 107.848 102.56 107.848 69.1432C107.848 49.0056 107.764 37.8083 107.638 37.0414C106.921 33.0971 103.867 29.9198 100.076 29.1748C99.4437 29.0652 98.0956 28.9556 97.0845 28.9556H95.2098V27.0054C95.2098 23.2803 94.3672 20.8261 92.3872 18.7444C88.7221 14.9316 82.7399 14.9316 79.0747 18.7444C77.0947 20.8261 76.2522 23.2803 76.2522 27.0054V28.9556H69.9329H63.6137V27.0054C63.6137 23.2803 62.7712 20.8261 60.7911 18.7444C57.126 14.9316 51.1438 14.9316 47.4787 18.7444C45.4986 20.8261 44.6561 23.2803 44.6561 27.0054V28.9556H38.1262H31.5964V27.0054C31.5964 25.9536 31.491 24.5512 31.3857 23.8939C30.3957 18.5472 25.3825 14.9974 20.2428 16.0492ZM23.592 22.8201C24.1397 23.105 24.582 23.5652 24.8559 24.1349C25.2561 24.9456 25.2771 25.4058 25.2771 32.2425C25.2771 39.0792 25.2561 39.5394 24.8559 40.3501C24.3714 41.3362 23.1707 42.1031 22.1175 42.1031C21.0643 42.1031 19.8637 41.3362 19.3792 40.3501C18.979 39.5394 18.9579 39.0792 18.9579 32.2425C18.9579 25.4058 18.979 24.9456 19.3792 24.1349C20.1586 22.5353 21.9912 21.9656 23.592 22.8201ZM55.6094 22.8201C56.1571 23.105 56.5994 23.5652 56.8732 24.1349C57.2734 24.9456 57.2945 25.4058 57.2945 32.2425C57.2945 39.0792 57.2734 39.5394 56.8732 40.3501C56.3888 41.3362 55.1881 42.1031 54.1349 42.1031C53.0817 42.1031 51.8811 41.3362 51.3966 40.3501C50.9964 39.5394 50.9753 39.0792 50.9753 32.2425C50.9753 25.4058 50.9964 24.9456 51.3966 24.1349C52.1759 22.5353 54.0085 21.9656 55.6094 22.8201ZM87.2055 22.8201C87.7531 23.105 88.1955 23.5652 88.4693 24.1349C88.8695 24.9456 88.8906 25.4058 88.8906 32.2425C88.8906 39.0792 88.8695 39.5394 88.4693 40.3501C87.9848 41.3362 86.7842 42.1031 85.731 42.1031C84.6778 42.1031 83.4771 41.3362 82.9927 40.3501C82.5924 39.5394 82.5714 39.0792 82.5714 32.2425C82.5714 25.4058 82.5924 24.9456 82.9927 24.1349C83.772 22.5353 85.6046 21.9656 87.2055 22.8201ZM12.6387 37.4796C12.6387 41.2047 13.4813 43.6589 15.4613 45.7406C19.1264 49.5534 25.1086 49.5534 28.7738 45.7406C30.7538 43.6589 31.5964 41.2047 31.5964 37.4796V35.5294H38.1262H44.6561V37.4796C44.6561 41.2047 45.4986 43.6589 47.4787 45.7406C51.1438 49.5534 57.126 49.5534 60.7911 45.7406C62.7712 43.6589 63.6137 41.2047 63.6137 37.4796V35.5294H69.9329H76.2522V37.4796C76.2522 41.2047 77.0947 43.6589 79.0747 45.7406C82.7399 49.5534 88.7221 49.5534 92.3872 45.7406C94.3672 43.6589 95.2098 41.2047 95.2098 37.4796V35.5294H97.1056C99.4648 35.5294 100.455 35.9676 101.108 37.2824C101.508 38.0932 101.529 38.5533 101.529 46.9239V55.6889H53.9243H6.31949V46.9239C6.31949 38.5533 6.34056 38.0932 6.74078 37.2824C7.39376 35.9676 8.32058 35.5513 10.7008 35.5294H12.6387V37.4796ZM101.529 70.9838V79.705L99.3594 77.5138C98.1798 76.2867 96.4737 74.7966 95.61 74.1611C85.6046 67.0177 72.6923 67.1272 62.8133 74.4679L61.4863 75.4321L54.3455 75.4102C47.5208 75.3882 47.1627 75.4102 46.3412 75.8484C45.3933 76.3524 44.6561 77.6014 44.6561 78.7189C44.6561 79.7927 45.4565 81.0417 46.4465 81.5457C47.2259 81.9401 47.7525 81.9839 51.4598 81.9839C53.7347 81.9839 55.6094 82.0496 55.6094 82.1373C55.6094 82.2249 55.2302 82.9261 54.7879 83.7369C53.2713 86.3883 51.6915 91.0338 51.2702 94.0796L51.1438 95.1314H49.1427C46.7204 95.1314 45.7303 95.5477 45.0774 96.8844C44.5508 97.98 44.5508 98.8565 45.0774 99.9522C45.7303 101.289 46.7204 101.705 49.1638 101.705H51.1438L51.2913 102.845C51.6915 105.934 53.3555 110.667 54.9985 113.472L55.82 114.853H32.3125C9.18421 114.853 8.82612 114.853 8.00462 114.414C7.45695 114.13 7.01461 113.669 6.74078 113.1C6.31949 112.245 6.31949 111.873 6.31949 87.2429V62.2626H53.9243H101.529V70.9838ZM82.4239 75.6512C91.1655 77.0098 98.222 83.4082 100.644 92.1732C104.015 104.269 97.1688 116.978 85.415 120.506C73.7877 124.012 61.5705 116.891 58.1792 104.663C54.177 90.2668 64.688 75.6293 79.159 75.4321C80.1279 75.4102 81.6024 75.5197 82.4239 75.6512Z" fill="#00A676"/>
<path d="M14.2817 75.8703C13.3759 76.3524 12.6387 77.6452 12.6387 78.697C12.6387 79.7926 13.3759 81.0416 14.3238 81.5456C15.1032 81.962 15.5455 81.9839 22.1175 81.9839C28.6895 81.9839 29.1318 81.962 29.9112 81.5456C30.8591 81.0416 31.5963 79.7926 31.5963 78.697C31.5963 77.6014 30.8591 76.3524 29.9112 75.8484C29.1318 75.432 28.6895 75.4101 22.0754 75.4101C15.5034 75.432 15.0189 75.454 14.2817 75.8703Z" fill="#00A676"/>
<path d="M14.2817 95.592C13.3759 96.0741 12.6387 97.3669 12.6387 98.4187C12.6387 99.5143 13.3759 100.763 14.3238 101.267C15.1032 101.684 15.5455 101.706 22.1175 101.706C28.6895 101.706 29.1318 101.684 29.9112 101.267C30.8591 100.763 31.5963 99.5143 31.5963 98.4187C31.5963 97.3231 30.8591 96.0741 29.9112 95.5701C29.1318 95.1537 28.6895 95.1318 22.0754 95.1318C15.5034 95.1537 15.0189 95.1756 14.2817 95.592Z" fill="#00A676"/>
<path d="M77.8949 82.4445C77.4105 82.7074 76.926 83.2114 76.6732 83.7373C76.273 84.5481 76.252 85.0082 76.252 91.8449C76.252 98.6816 76.273 99.1418 76.6732 99.9526C76.9471 100.522 77.3894 100.982 77.9371 101.267C78.7164 101.684 79.1588 101.706 85.7308 101.706C92.3028 101.706 92.7451 101.684 93.5245 101.267C94.4724 100.763 95.2096 99.5143 95.2096 98.4187C95.2096 97.3231 94.4724 96.0741 93.5245 95.5701C92.7662 95.1756 92.3028 95.1318 87.6265 95.1318H82.5712V89.8728C82.5712 85.0082 82.529 84.5262 82.1499 83.7373C81.3705 82.1377 79.4748 81.568 77.8949 82.4445Z" fill="#00A676"/>
</g>
<defs>
<clipPath id="clip0_2007_42">
<rect width="107.848" height="112.192" fill="white" transform="translate(0 15.8081)"/>
</clipPath>
</defs>
</svg>
